<svg width="32" height="29" viewBox="0 0 32 29" fill="none" xmlns="http://www.w3.org/2000/svg">
    <path d="M25.76 12.0833H6.25334C4.28 12.0833 2.67999 10.6212 2.67999 8.84498V5.66705C2.67999 3.87872 4.29334 2.42871 6.25334 2.42871H25.76C27.7333 2.42871 29.3333 3.8908 29.3333 5.66705V8.84498C29.3333 10.6212 27.72 12.0833 25.76 12.0833Z" stroke="#3ECE80" stroke-width="2" stroke-linecap="round" stroke-linejoin="round"/>
    <path d="M25.76 26.5833H6.25334C4.28 26.5833 2.67999 25.1212 2.67999 23.345V20.1671C2.67999 18.3787 4.29334 16.9287 6.25334 16.9287H25.76C27.7333 16.9287 29.3333 18.3908 29.3333 20.1671V23.345C29.3333 25.1212 27.72 26.5833 25.76 26.5833Z" stroke="#3ECE80" stroke-width="2" stroke-linecap="round" stroke-linejoin="round"/>
    <path d="M8 6.04175V8.45841" stroke="#3ECE80" stroke-width="2" stroke-linecap="round" stroke-linejoin="round"/>
    <path d="M13.3333 6.04175V8.45841" stroke="#3ECE80" stroke-width="2" stroke-linecap="round" stroke-linejoin="round"/>
    <path d="M8 20.5417V22.9584" stroke="#3ECE80" stroke-width="2" stroke-linecap="round" stroke-linejoin="round"/>
    <path d="M13.3333 20.5417V22.9584" stroke="#3ECE80" stroke-width="2" stroke-linecap="round" stroke-linejoin="round"/>
    <path d="M18.6667 7.25H24" stroke="#3ECE80" stroke-width="2" stroke-linecap="round" stroke-linejoin="round"/>
    <path d="M18.6667 21.75H24" stroke="#3ECE80" stroke-width="2" stroke-linecap="round" stroke-linejoin="round"/>
    </svg>
    