<svg width="32" height="33" viewBox="0 0 32 33" fill="none" xmlns="http://www.w3.org/2000/svg">
    <path d="M27.4312 9.62427V23.3743C27.4312 27.4993 25.4719 30.2493 20.9 30.2493H10.45C5.87812 30.2493 3.91875 27.4993 3.91875 23.3743V9.62427C3.91875 5.49927 5.87812 2.74927 10.45 2.74927H20.9C25.4719 2.74927 27.4312 5.49927 27.4312 9.62427Z" stroke="#854BFF" stroke-width="2" stroke-miterlimit="10" stroke-linecap="round" stroke-linejoin="round"/>
    <path d="M21.2266 15.1243H10.1234C8.86944 15.1243 7.8375 14.038 7.8375 12.718V9.28052C7.8375 7.96052 8.86944 6.87427 10.1234 6.87427H21.2266C22.4806 6.87427 23.5125 7.96052 23.5125 9.28052V12.718C23.5125 14.038 22.4806 15.1243 21.2266 15.1243Z" stroke="#854BFF" stroke-width="2" stroke-miterlimit="10" stroke-linecap="round" stroke-linejoin="round"/>
    <path d="M13.4544 21.01L10.4501 24.1725" stroke="#854BFF" stroke-width="2" stroke-miterlimit="10" stroke-linecap="round" stroke-linejoin="round"/>
    <path d="M10.4893 21.0515L13.4937 24.214" stroke="#854BFF" stroke-width="2" stroke-miterlimit="10" stroke-linecap="round" stroke-linejoin="round"/>
    <path d="M21.54 21.0786H21.5662" stroke="#854BFF" stroke-width="2" stroke-miterlimit="10" stroke-linecap="round" stroke-linejoin="round"/>
    <path d="M18.9275 24.0611V24.0349" stroke="#854BFF" stroke-width="2" stroke-miterlimit="10" stroke-linecap="round" stroke-linejoin="round"/>
    </svg>
    